<svg width="100mm" height="100mm" version="1.1" viewBox="0 0 100 100" xmlns="http://www.w3.org/2000/svg">
 <defs>=</defs>
 <g fill="#3f6bb0">
  <path d="m87.68 52.33c-9.763-9.763-25.59-9.763-35.36 0-9.763 9.763-9.763 25.59 0 35.36 9.763 9.763 25.59 9.763 35.36 0 9.763-9.763 9.763-25.59 0-35.36zm-11.69 19.68c2.001 0 3.621 1.714 3.621 3.831s-1.62 3.831-3.621 3.831-3.621-1.714-3.621-3.831 1.62-3.831 3.621-3.831zm0 8.916c2.417 0 7.242 1.274 7.242 3.831v1.916h-14.48v-1.916c0-2.548 4.825-3.831 7.242-3.831zm-15.38-23.12c2.811 0 5.087 2.408 5.087 5.382s-2.277 5.382-5.087 5.382c-2.811 0-5.087-2.408-5.087-5.382s2.277-5.382 5.087-5.382zm0 12.46c3.396 0 10.17 1.79 10.17 5.382v2.691h-20.35v-2.691c0-3.579 6.779-5.382 10.17-5.382zm18.36-7.355c-1.438 0-2.599-1.188-2.599-2.66s1.161-2.66 2.599-2.66 2.59 1.188 2.59 2.66-1.152 2.66-2.59 2.66zm-6.929 0.3307c-1.438 0-2.598-1.188-2.598-2.66s1.161-2.66 2.598-2.66c1.438 0 2.59 1.188 2.59 2.66s-1.152 2.66-2.59 2.66zm0 1.443c2.018 0 6.063 1.038 6.063 3.104l0.0135 1.321-9.062-0.0113-3.07-0.8986-0.0074-0.4113c-0.03706-2.066 4.045-3.104 6.063-3.104zm6.929 0c2.018 0 6.063 1.038 6.063 3.104l0.0037 1.332-5.15-0.0148-0.05044-1.317c0-1.312-0.7016-2.315-1.706-3.059 0.3032-0.0266 0.589-0.0443 0.8402-0.0443z"/>
  <path d="m94.41 52.75c0.381-0.6985 0.5927-1.503 0.5927-2.349 0-2.18-1.418-4-3.387-4.614-0.8043-3.768-3.196-6.858-5.863-9.229-0.2752-0.254-0.5503-0.4868-0.8255-0.6985 0.0212-0.0847 0.0212-0.1482 0.0212-0.2117 0.254-2.201 0.2117-4.318-0.1905-6.435-0.0635-0.4233-0.1058-0.8467-0.1905-1.291-0.2963-1.841-1.164-3.619-2.328-5.27-0.1905-0.3387-0.4233-0.6562-0.6562-0.9525 0.2963-0.635 0.4657-1.333 0.4657-2.074 0-2.667-2.138-4.826-4.805-4.826-0.889 0-1.714 0.254-2.434 0.6773-2.074-1.503-4.022-2.603-5.355-3.133-4.508-1.778-9.356-2.963-14.08-3.514-0.4657-2.18-2.392-3.831-4.699-3.831-2.244 0-4.127 1.524-4.657 3.598-2.074 0.1693-4.043 0.4657-5.863 0.9313-5.651 1.439-10.9 4.233-15.41 8.001-0.8678-0.8043-2.032-1.312-3.302-1.312-2.646 0-4.805 2.159-4.805 4.826 0 1.333 0.5503 2.561 1.439 3.429-4.424 5.736-7.514 12.62-8.699 20-2.455 0.2117-4.381 2.265-4.381 4.805 0 2.371 1.714 4.339 3.937 4.741 0.0635 0.9102 0.127 1.905 0.254 2.984 0.4445 3.937 1.524 8.784 4.064 13.38 0.9948 1.82 2.498 3.704 4.318 5.397-0.4868 0.762-0.7832 1.672-0.7832 2.646 0 2.667 2.159 4.826 4.805 4.826 1.714 0 3.238-0.9102 4.085-2.286 3.175 1.185 6.837 1.587 10.82 1.185 0.9948 1.397 2.074 2.688 3.238 3.852 1.884 1.841 3.979 3.323 6.244 4.17 0 2.667 2.159 4.826 4.805 4.826 0.7832 0 1.524-0.1905 2.159-0.508-1.736-1.228-3.514-2.519-6.562-6.223-0.0423 0.1058-0.0847 0.2117-0.127 0.3175-1.926-0.7832-3.725-2.053-5.397-3.725-0.9102-0.889-1.757-1.884-2.561-2.942 1.291-0.2117 2.625-0.508 3.958-0.8678l-0.5503-1.503c-0.2963 0.0847-0.5927 0.1482-0.889 0.2328-1.164 0.2752-2.371 0.4445-3.619 0.5715-1.312-1.947-2.434-4.085-3.387-6.244-0.508-1.185-0.9737-2.371-1.376-3.556 2.476 0.5715 5.122 1.016 7.768 1.355l-0.0635-1.651c-2.857-0.381-5.715-0.889-8.276-1.524-2.857-9.483-2.582-18.46-2.582-20.72v-0.0212c0.04233-1.545 0.1058-2.963 0.1905-4.297 2.582-0.0847 4.657-2.222 4.657-4.826 0-1.164-0.4233-2.244-1.101-3.069 2.519-2.561 5.165-4.847 7.768-6.731l-0.4445-0.6562 0.4657 0.635c0.4657-0.3598 0.9313-0.6985 1.397-1.037 3.662-0.4233 6.71-0.4868 8.572-0.4868 0.5927-0.02117 1.079 0 1.418 0 7.853 0.1693 12.81 1.079 17.48 2.561 0.9102 2.879 1.757 6.265 2.307 10.12l1.609 0.127c-0.4868-3.598-1.249-6.837-2.074-9.631l4.657 1.757c1.587 0.635 4.381 2.032 7.048 4.085-0.0847 0.5292-0.1693 1.058-0.2752 1.587-0.254 1.228-0.6985 2.73-1.291 4.381l1.609 0.7197c0.6773-1.863 1.143-3.683 1.439-5.482 2.349 2.117 4.403 4.741 5.207 7.832-0.6985 0.0423-1.376 0.254-1.99 0.5715 2.265 1.609 4.424 3.852 6.477 6.604zm-50.78-42.29c-1.947 1.122-3.641 2.625-5.101 4.212-3.006 3.281-4.995 6.964-5.8 9.017-0.6985 1.757-1.355 3.408-1.926 5.08-1.714 0.5292-3.471 1.164-5.207 1.926-4.212 1.82-8.34 4.297-11.45 7.345-0.8678 0.8255-1.651 1.714-2.349 2.646 1.482-5.588 4.106-10.79 7.578-15.28 0.635 0.2963 1.333 0.4657 2.074 0.4657 2.646 0 4.805-2.159 4.805-4.826 0-0.8043-0.2117-1.566-0.5503-2.244 4.36-3.641 9.419-6.35 14.84-7.726 0.9737-0.254 2.011-0.4445 3.09-0.6138zm11.73 0.4022c2.053 0.762 3.852 1.99 5.461 3.514 0.8255 0.7832 1.609 1.672 2.328 2.582-7.387 1.312-14.84 4.72-21.55 9.525-2.709 0.3387-5.757 0.8678-8.932 1.736 0.4657-1.291 0.9737-2.582 1.524-3.937 0.7197-1.841 2.667-5.44 5.503-8.53 1.778-1.947 3.916-3.683 6.329-4.72 0.5292 2.095 2.413 3.619 4.635 3.619 2.307 0 4.233-1.63 4.699-3.789zm3.81 0.1693c3.302 0.635 6.583 1.566 9.694 2.794 1.058 0.4233 2.794 1.397 4.699 2.709-0.127 0.1482-0.2328 0.2963-0.3387 0.4445-0.1693-0.04233-0.3598-0.08467-0.5503-0.1058-1.82-0.3175-3.577-0.4022-5.08-0.3598-1.058 0.02117-1.968 0.1058-2.667 0.1905-0.889-1.249-1.905-2.434-3.027-3.492-0.8467-0.8043-1.757-1.545-2.73-2.18zm9.017 7.07c1.27 0 2.752 0.08467 4.233 0.3387 0.0423 0.02117 0.1058 0.02117 0.1482 0.04233-0.0847 0.3598-0.127 0.762-0.127 1.164 0 2.646 2.159 4.805 4.805 4.805 1.291 0 2.476-0.508 3.344-1.355 0.1482 0.1905 0.2752 0.381 0.4022 0.5927 0.0423 0.04233 0.0635 0.1058 0.1058 0.1482 1.058 1.884 1.736 3.725 2.095 5.609 0.2328 1.778 0.3175 3.471 0.254 5.165v0.1058c-2.561-1.863-5.101-3.111-6.689-3.746-2.011-0.7832-3.916-1.503-5.842-2.159-0.762-2.244-1.545-4.149-2.265-5.715-0.762-1.609-1.651-3.281-2.688-4.889 0.508-0.04233 1.058-0.0635 1.672-0.08467h0.5292zm-3.979 0.3175c1.185 1.714 2.18 3.556 3.006 5.355 0.5715 1.249 1.206 2.73 1.82 4.445-4.487-1.312-9.44-2.138-16.81-2.286l-0.0212 0.7832v-0.7832c-1.037 0-3.704-0.0635-7.281 0.2117 6.138-3.979 12.78-6.731 19.28-7.726zm-25.32 10.08c-2.392 1.799-4.784 3.916-7.091 6.244-0.2963-0.1905-0.635-0.3387-0.9737-0.4445 0.3387-1.482 0.762-2.857 1.206-4.233 2.371-0.6985 4.678-1.206 6.858-1.566zm-8.699 2.138c-0.3387 1.101-0.635 2.244-0.9102 3.408-2.646 0.0212-4.784 2.18-4.784 4.826 0 1.164 0.4233 2.244 1.101 3.069-1.693 2.265-3.26 4.614-4.593 7.027-2.244 4-3.704 8.149-4.381 12.04-0.8678-0.7197-1.672-1.482-2.392-2.265-1.376-1.482-2.413-3.069-3.069-4.826 1.99-0.5927 3.45-2.434 3.45-4.635 0-2.138-1.397-3.958-3.323-4.593 0.8467-1.968 2.222-3.81 3.958-5.503 2.942-2.857 6.9-5.249 10.99-7.027 1.312-0.5715 2.646-1.079 3.979-1.524zm-3.387 12.36c0.3387 0.2117 0.6985 0.381 1.101 0.4868-0.1058 1.587-0.1693 3.175-0.2117 4.508 0 2.053-0.2752 10.82 2.371 20.3-2.074-0.5927-3.895-1.27-5.313-2.032-2.455-1.312-4.72-2.688-6.689-4.127 0.5715-3.958 2.011-8.234 4.318-12.38 1.291-2.307 2.794-4.572 4.424-6.752zm-16.07 13.69c0.635 1.122 1.418 2.159 2.307 3.133 0.9737 1.079 2.095 2.074 3.323 3.027-0.127 1.079-0.1905 2.138-0.1905 3.175 0 2.709 0.4233 5.249 1.291 7.408-1.185-1.249-2.159-2.561-2.857-3.81-2.392-4.339-3.429-8.996-3.852-12.78-0.02117-0.0423-0.02117-0.0847-0.02117-0.1482zm7.112 7.26c1.863 1.312 3.937 2.54 6.159 3.725 1.778 0.9525 4.064 1.778 6.604 2.455 0.4868 1.524 1.079 3.09 1.736 4.614 0.8678 1.99 1.884 3.937 3.027 5.757-1.037 0.0635-2.117 0.0847-3.26 0.0847-1.947-0.0212-3.937-0.4445-5.821-1.185 0.0635-0.2963 0.1058-0.635 0.1058-0.9525 0-2.667-2.159-4.826-4.805-4.826-0.7408 0-1.439 0.1693-2.053 0.4657-1.164-2.18-1.778-4.932-1.778-8.064 0-0.6773 0.02117-1.376 0.08467-2.074z"/>
 </g>
</svg>
